<?xml version="1.0" standalone="no"?>
<!DOCTYPE svg PUBLIC "-//W3C//DTD SVG 20010904//EN"
 "http://www.w3.org/TR/2001/REC-SVG-20010904/DTD/svg10.dtd">
<svg version="1.0" xmlns="http://www.w3.org/2000/svg"
 width="104.000000pt" height="104.000000pt" viewBox="0 0 104.000000 104.000000"
 preserveAspectRatio="xMidYMid meet">
<metadata>
Created by potrace 1.13, written by Peter Selinger 2001-2015
</metadata>
<g transform="translate(0.000000,104.000000) scale(0.100000,-0.100000)"
fill="#000000" stroke="none">
<path d="M335 908 c-58 -21 -111 -66 -138 -116 -15 -27 -27 -57 -27 -66 0 -8
-17 -24 -38 -35 -45 -24 -97 -76 -111 -114 -15 -39 -14 -111 3 -150 19 -46 74
-95 127 -114 35 -13 51 -25 63 -50 49 -103 206 -133 296 -56 30 25 33 25 58
11 85 -51 201 -16 247 72 11 21 25 30 54 35 115 19 191 153 150 262 -13 36
-64 88 -100 104 -16 6 -44 33 -63 59 -54 75 -146 108 -221 80 -23 -9 -32 -6
-61 20 -19 16 -48 37 -66 46 -39 20 -134 27 -173 12z m152 -89 c29 -14 52 -35
69 -65 l26 -44 36 25 c69 47 164 19 188 -55 9 -27 20 -37 52 -48 152 -50 103
-251 -55 -227 l-43 6 0 -35 c0 -25 -9 -45 -29 -68 -25 -28 -36 -33 -76 -33
-41 0 -51 4 -81 37 -19 21 -36 38 -39 38 -3 0 -16 -18 -30 -40 -63 -100 -197
-90 -234 17 -13 37 -19 42 -54 47 -82 13 -127 62 -127 136 0 36 6 48 39 81 31
31 46 39 75 39 35 0 36 1 36 38 0 59 38 122 90 149 54 29 101 29 157 2z"/>
</g>
</svg>
