<?xml version="1.0" standalone="no"?>
<!DOCTYPE svg PUBLIC "-//W3C//DTD SVG 20010904//EN"
 "http://www.w3.org/TR/2001/REC-SVG-20010904/DTD/svg10.dtd">
<svg version="1.0" xmlns="http://www.w3.org/2000/svg"
 width="104.000000pt" height="104.000000pt" viewBox="0 0 104.000000 104.000000"
 preserveAspectRatio="xMidYMid meet">
<metadata>
Created by potrace 1.13, written by Peter Selinger 2001-2015
</metadata>
<g transform="translate(0.000000,104.000000) scale(0.100000,-0.100000)"
fill="#000000" stroke="none">
<path d="M75 1031 c-11 -5 -31 -21 -45 -36 l-25 -27 0 -449 0 -449 33 -32 32
-33 270 0 270 0 32 33 33 32 0 450 0 450 -33 32 -32 33 -258 2 c-141 1 -266
-2 -277 -6z m513 -83 c17 -17 17 -399 0 -416 -17 -17 -479 -17 -496 0 -17 17
-17 399 0 416 17 17 479 17 496 0z"/>
<path d="M132 908 c-16 -16 -16 -120 0 -136 17 -17 399 -17 416 0 16 16 16
120 0 136 -17 17 -399 17 -416 0z"/>
<path d="M132 708 c-16 -16 -16 -120 0 -136 17 -17 399 -17 416 0 16 16 16
120 0 136 -17 17 -399 17 -416 0z"/>
<path d="M692 1007 l23 -32 0 -455 0 -455 -23 -32 -22 -31 112 35 c154 48 204
70 233 105 l25 30 0 348 0 348 -25 30 c-29 35 -79 57 -233 105 l-112 35 22
-31z"/>
</g>
</svg>
