<?xml version="1.0" standalone="no"?>
<!DOCTYPE svg PUBLIC "-//W3C//DTD SVG 20010904//EN"
 "http://www.w3.org/TR/2001/REC-SVG-20010904/DTD/svg10.dtd">
<svg version="1.0" xmlns="http://www.w3.org/2000/svg"
 width="104.000000pt" height="104.000000pt" viewBox="0 0 104.000000 104.000000"
 preserveAspectRatio="xMidYMid meet">
<metadata>
Created by potrace 1.13, written by Peter Selinger 2001-2015
</metadata>
<g transform="translate(0.000000,104.000000) scale(0.100000,-0.100000)"
fill="#000000" stroke="none">
<path d="M403 1025 c-186 -40 -343 -198 -388 -387 -65 -277 109 -557 387 -623
372 -88 711 251 623 623 -45 192 -203 347 -392 387 -83 18 -148 18 -230 0z
m186 -171 c34 -36 60 -71 58 -77 -2 -7 -19 -13 -39 -15 -35 -3 -35 -4 -41 -54
-7 -52 -18 -68 -49 -68 -29 0 -48 29 -48 75 0 43 -1 44 -37 47 -20 2 -38 8
-40 15 -4 11 113 143 127 143 4 0 35 -30 69 -66z m-252 -269 l68 -65 -68 -66
c-38 -36 -74 -63 -80 -61 -7 2 -14 19 -17 38 -5 33 -7 34 -52 37 -53 3 -74 26
-64 67 6 23 38 35 92 35 21 0 24 5 24 33 0 65 13 63 97 -18z m461 22 c3 -31 7
-37 26 -37 54 0 86 -13 92 -35 10 -41 -11 -64 -64 -67 -45 -3 -47 -4 -52 -37
-3 -19 -10 -36 -17 -38 -6 -2 -42 25 -80 61 l-68 66 68 66 c38 36 74 63 80 61
7 -2 13 -20 15 -40z m-250 -215 c7 -5 15 -32 19 -60 6 -50 6 -51 41 -54 20 -2
37 -8 39 -15 2 -6 -25 -42 -61 -80 l-66 -68 -66 68 c-36 38 -63 74 -61 80 2 7
20 13 40 15 36 3 37 4 37 47 0 61 37 93 78 67z"/>
</g>
</svg>
