<?xml version="1.0" standalone="no"?>
<!DOCTYPE svg PUBLIC "-//W3C//DTD SVG 20010904//EN"
 "http://www.w3.org/TR/2001/REC-SVG-20010904/DTD/svg10.dtd">
<svg version="1.0" xmlns="http://www.w3.org/2000/svg"
 width="104.000000pt" height="104.000000pt" viewBox="0 0 104.000000 104.000000"
 preserveAspectRatio="xMidYMid meet">
<metadata>
Created by potrace 1.13, written by Peter Selinger 2001-2015
</metadata>
<g transform="translate(0.000000,104.000000) scale(0.100000,-0.100000)"
fill="#000000" stroke="none">
<path d="M75 1031 c-11 -5 -31 -21 -45 -36 l-25 -27 0 -449 0 -449 33 -32 32
-33 450 0 450 0 32 33 33 32 0 450 0 450 -33 32 -32 33 -438 2 c-240 1 -446
-2 -457 -6z m742 -206 l68 -65 -68 -66 c-38 -36 -74 -63 -80 -61 -7 2 -14 19
-17 38 l-5 34 -67 3 c-74 3 -96 20 -84 67 6 24 43 35 119 35 35 0 37 2 37 33
0 65 13 63 97 -18z m-499 -98 c3 -35 5 -37 40 -37 75 0 112 -11 118 -35 12
-47 -10 -64 -84 -67 l-67 -3 -5 -34 c-3 -19 -10 -36 -17 -38 -6 -2 -42 25 -80
61 l-68 66 68 66 c38 36 74 63 80 61 7 -2 13 -20 15 -40z m499 -262 l68 -65
-68 -66 c-38 -36 -74 -63 -80 -61 -7 2 -14 19 -17 38 l-5 34 -67 3 c-74 3 -96
20 -84 67 6 24 43 35 119 35 35 0 37 2 37 33 0 65 13 63 97 -18z m-499 -98 c3
-35 5 -37 40 -37 75 0 112 -11 118 -35 12 -47 -10 -64 -84 -67 l-67 -3 -5 -34
c-3 -19 -10 -36 -17 -38 -6 -2 -42 25 -80 61 l-68 66 68 66 c38 36 74 63 80
61 7 -2 13 -20 15 -40z"/>
</g>
</svg>
